<svg width="42" height="42" viewBox="0 0 42 42" fill="none" xmlns="http://www.w3.org/2000/svg">
<path fill-rule="evenodd" clip-rule="evenodd" d="M0 12.6C0 5.6417 5.6417 0 12.6 0H29.4C36.3583 0 42 5.6417 42 12.6V29.4C42 36.3583 36.3583 42 29.4 42H12.6C5.6417 42 0 36.3583 0 29.4V12.6ZM32.2219 24.0393C32.9991 24.7334 33.7774 25.4287 34.4654 26.2069C34.7372 26.5145 34.9997 26.8283 35.2314 27.1626C35.3534 27.3379 35.4672 27.5184 35.5698 27.7061C35.7892 28.108 35.7923 28.5305 35.6426 28.8504C35.5021 29.1498 35.2283 29.36 34.8725 29.3826L30.2839 29.3815C29.0996 29.4749 28.1562 29.0237 27.3615 28.2608C26.7268 27.6517 26.1382 27.0026 25.5271 26.373C25.2769 26.1146 25.0144 25.8716 24.7006 25.6799C24.352 25.4656 24.028 25.4082 23.748 25.5056C23.5266 25.5825 23.3317 25.7578 23.1738 26.0306C22.8088 26.6571 22.7247 27.3513 22.6898 28.0485C22.6406 29.0678 22.3135 29.3344 21.2287 29.3826C18.9092 29.4851 16.7087 29.1529 14.6631 28.0506C12.8584 27.0785 11.4618 25.7076 10.2447 24.1541C7.875 21.1261 6.06006 17.8028 4.42969 14.3832C4.0626 13.6131 4.33125 13.2019 5.23257 13.1855C6.72964 13.1588 8.22773 13.1619 9.7248 13.1845C10.3339 13.1937 10.7369 13.5218 10.9717 14.0643C11.7807 15.9407 12.7723 17.7259 14.0161 19.3809L14.2458 19.6813C14.5093 20.0166 14.7954 20.3335 15.1666 20.5734C15.6977 20.9169 16.1027 20.8031 16.354 20.2443C16.5139 19.8885 16.5836 19.5081 16.6185 19.1276C16.7374 17.8233 16.7518 16.519 16.5457 15.2199C16.4175 14.4067 15.9315 13.8817 15.0722 13.7279C14.6333 13.649 14.6979 13.4962 14.9112 13.2604C15.2804 12.8533 15.627 12.601 16.3191 12.601L21.5035 12.6C22.3197 12.7507 22.5032 13.0963 22.614 13.8725L22.6191 19.3009C22.6088 19.6014 22.7791 20.4914 23.3502 20.6873C23.8085 20.8298 24.111 20.4832 24.3848 20.2104C25.6276 18.9667 26.5135 17.4993 27.3072 15.9807C27.6568 15.3111 27.9593 14.618 28.2526 13.9238C28.3551 13.6828 28.4833 13.4993 28.6556 13.3731C28.8494 13.2306 29.0985 13.1619 29.4246 13.166L34.4162 13.1722C34.5628 13.1722 34.7125 13.1732 34.8582 13.1968C35.3011 13.2686 35.5749 13.3967 35.6969 13.6151C35.8056 13.811 35.7923 14.0807 35.6692 14.4467C35.2755 15.6146 34.5239 16.5959 33.7753 17.5721L33.6861 17.689C32.8515 18.7759 31.9625 19.8239 31.137 20.9159C30.3782 21.9126 30.4377 22.415 31.38 23.2815C31.6579 23.5368 31.9399 23.788 32.2219 24.0393Z" fill="white"/>
</svg>
