<svg width="52" height="42" viewBox="0 0 52 42" fill="none" xmlns="http://www.w3.org/2000/svg">
<path d="M50.8118 6.55725C52 11.235 52 21 52 21C52 21 52 30.765 50.8118 35.4428C50.1514 38.0284 48.2196 40.0628 45.773 40.7505C41.3296 42 26 42 26 42C26 42 10.6782 42 6.227 40.7505C3.77 40.0522 1.8408 38.0205 1.1882 35.4428C7.7486e-08 30.765 0 21 0 21C0 21 7.7486e-08 11.235 1.1882 6.55725C1.8486 3.97163 3.7804 1.93725 6.227 1.2495C10.6782 -4.69387e-07 26 0 26 0C26 0 41.3296 -4.69387e-07 45.773 1.2495C48.23 1.94775 50.1592 3.9795 50.8118 6.55725ZM20.8 30.1875L36.4 21L20.8 11.8125V30.1875Z" fill="white"/>
</svg>
