<svg width="48" height="63" viewBox="0 0 48 63" fill="none" xmlns="http://www.w3.org/2000/svg">
<path d="M46.7741 13.2761L46.7742 13.2762C47.2416 13.7363 47.5 14.3587 47.5 14.9994V15.25H32.5V0.5H32.7625C33.4341 0.5 34.0697 0.758009 34.5366 1.21748C34.5366 1.21754 34.5367 1.21759 34.5367 1.21765L46.7741 13.2761ZM3 0.5H27.5V16.7344C27.5 18.6421 29.0813 20.1875 31 20.1875H47.5V60.0469C47.5 61.3999 46.3938 62.5 45 62.5H3C1.60619 62.5 0.5 61.3999 0.5 60.0469V2.95312C0.5 1.60014 1.60619 0.5 3 0.5ZM34.5 47.75C35.5937 47.75 36.5 46.8691 36.5 45.7734V44.7891C36.5 43.6934 35.5937 42.8125 34.5 42.8125H13.5C12.4063 42.8125 11.5 43.6934 11.5 44.7891V45.7734C11.5 46.8691 12.4063 47.75 13.5 47.75H34.5ZM34.5 39.875C35.5937 39.875 36.5 38.9941 36.5 37.8984V36.9141C36.5 35.8184 35.5937 34.9375 34.5 34.9375H13.5C12.4063 34.9375 11.5 35.8184 11.5 36.9141V37.8984C11.5 38.9941 12.4063 39.875 13.5 39.875H34.5ZM36.5 30.0234V29.0391C36.5 27.9434 35.5937 27.0625 34.5 27.0625H13.5C12.4063 27.0625 11.5 27.9434 11.5 29.0391V30.0234C11.5 31.1191 12.4063 32 13.5 32H34.5C35.5937 32 36.5 31.1191 36.5 30.0234Z" fill="#CAE5FF" stroke="#A3BFEF"/>
</svg>
