<svg width="42" height="42" viewBox="0 0 42 42" fill="none" xmlns="http://www.w3.org/2000/svg">
<path fill-rule="evenodd" clip-rule="evenodd" d="M12 0C5.37258 0 0 5.37258 0 12V30C0 36.6274 5.37258 42 12 42H30C36.6274 42 42 36.6274 42 30V12C42 5.37258 36.6274 0 30 0H12ZM14 3H28V6H14V3ZM11 9V6H14V9H11ZM8 12V9H11V12H8ZM5 15V12H8V15H5ZM5 15V18H2V15H5ZM31 9H28V6H31V9ZM34 12H31V9H34V12ZM37 15H34V12H37V15ZM37 15H40V18H37V15ZM16 12H13V15H10V18H7V21H5V23H3V28H5V35H7H8H10V21H13V38H18V12H24V38H26H27H29V21H32V35H35H37V28H39V23H37V21H35V18H32V15H29V12H27H26V9H16V12Z" fill="white"/>
</svg>
